<mxGraphModel dx="2244" dy="600" grid="1" gridSize="10" guides="1" tooltips="1" connect="1" arrows="1" fold="1" page="1" pageScale="1" pageWidth="1169" pageHeight="1654" math="0" shadow="0">
  <root>
    <mxCell id="0" />
    <mxCell id="1" parent="0" />
    <mxCell id="673K4u6FU-GTqoQ9WKUB-1" value="Обращение" style="shape=table;startSize=30;container=1;collapsible=1;childLayout=tableLayout;fixedRows=1;rowLines=0;fontStyle=1;align=center;resizeLast=1;" vertex="1" parent="1">
      <mxGeometry x="-40" y="130" width="180" height="420" as="geometry" />
    </mxCell>
    <mxCell id="673K4u6FU-GTqoQ9WKUB-2" value="" style="shape=partialRectangle;collapsible=0;dropTarget=0;pointerEvents=0;fillColor=none;top=0;left=0;bottom=1;right=0;points=[[0,0.5],[1,0.5]];portConstraint=eastwest;" vertex="1" parent="673K4u6FU-GTqoQ9WKUB-1">
      <mxGeometry y="30" width="180" height="30" as="geometry" />
    </mxCell>
    <mxCell id="673K4u6FU-GTqoQ9WKUB-3" value="PK" style="shape=partialRectangle;connectable=0;fillColor=none;top=0;left=0;bottom=0;right=0;fontStyle=1;overflow=hidden;" vertex="1" parent="673K4u6FU-GTqoQ9WKUB-2">
      <mxGeometry width="30" height="30" as="geometry" />
    </mxCell>
    <mxCell id="673K4u6FU-GTqoQ9WKUB-4" value="Номер обращения" style="shape=partialRectangle;connectable=0;fillColor=none;top=0;left=0;bottom=0;right=0;align=left;spacingLeft=6;fontStyle=1;overflow=hidden;" vertex="1" parent="673K4u6FU-GTqoQ9WKUB-2">
      <mxGeometry x="30" width="150" height="30" as="geometry" />
    </mxCell>
    <mxCell id="673K4u6FU-GTqoQ9WKUB-11" value="" style="shape=partialRectangle;collapsible=0;dropTarget=0;pointerEvents=0;fillColor=none;top=0;left=0;bottom=0;right=0;points=[[0,0.5],[1,0.5]];portConstraint=eastwest;" vertex="1" parent="673K4u6FU-GTqoQ9WKUB-1">
      <mxGeometry y="60" width="180" height="30" as="geometry" />
    </mxCell>
    <mxCell id="673K4u6FU-GTqoQ9WKUB-12" value="" style="shape=partialRectangle;connectable=0;fillColor=none;top=0;left=0;bottom=0;right=0;editable=1;overflow=hidden;" vertex="1" parent="673K4u6FU-GTqoQ9WKUB-11">
      <mxGeometry width="30" height="30" as="geometry" />
    </mxCell>
    <mxCell id="673K4u6FU-GTqoQ9WKUB-13" value="Дата" style="shape=partialRectangle;connectable=0;fillColor=none;top=0;left=0;bottom=0;right=0;align=left;spacingLeft=6;overflow=hidden;" vertex="1" parent="673K4u6FU-GTqoQ9WKUB-11">
      <mxGeometry x="30" width="150" height="30" as="geometry" />
    </mxCell>
    <mxCell id="673K4u6FU-GTqoQ9WKUB-215" value="" style="shape=partialRectangle;collapsible=0;dropTarget=0;pointerEvents=0;fillColor=none;top=0;left=0;bottom=0;right=0;points=[[0,0.5],[1,0.5]];portConstraint=eastwest;" vertex="1" parent="673K4u6FU-GTqoQ9WKUB-1">
      <mxGeometry y="90" width="180" height="30" as="geometry" />
    </mxCell>
    <mxCell id="673K4u6FU-GTqoQ9WKUB-216" value="" style="shape=partialRectangle;connectable=0;fillColor=none;top=0;left=0;bottom=0;right=0;editable=1;overflow=hidden;" vertex="1" parent="673K4u6FU-GTqoQ9WKUB-215">
      <mxGeometry width="30" height="30" as="geometry" />
    </mxCell>
    <mxCell id="673K4u6FU-GTqoQ9WKUB-217" value="Владелец животного" style="shape=partialRectangle;connectable=0;fillColor=none;top=0;left=0;bottom=0;right=0;align=left;spacingLeft=6;overflow=hidden;" vertex="1" parent="673K4u6FU-GTqoQ9WKUB-215">
      <mxGeometry x="30" width="150" height="30" as="geometry" />
    </mxCell>
    <mxCell id="673K4u6FU-GTqoQ9WKUB-5" value="" style="shape=partialRectangle;collapsible=0;dropTarget=0;pointerEvents=0;fillColor=none;top=0;left=0;bottom=0;right=0;points=[[0,0.5],[1,0.5]];portConstraint=eastwest;" vertex="1" parent="673K4u6FU-GTqoQ9WKUB-1">
      <mxGeometry y="120" width="180" height="30" as="geometry" />
    </mxCell>
    <mxCell id="673K4u6FU-GTqoQ9WKUB-6" value="" style="shape=partialRectangle;connectable=0;fillColor=none;top=0;left=0;bottom=0;right=0;editable=1;overflow=hidden;" vertex="1" parent="673K4u6FU-GTqoQ9WKUB-5">
      <mxGeometry width="30" height="30" as="geometry" />
    </mxCell>
    <mxCell id="673K4u6FU-GTqoQ9WKUB-7" value="Вид животного" style="shape=partialRectangle;connectable=0;fillColor=none;top=0;left=0;bottom=0;right=0;align=left;spacingLeft=6;overflow=hidden;" vertex="1" parent="673K4u6FU-GTqoQ9WKUB-5">
      <mxGeometry x="30" width="150" height="30" as="geometry" />
    </mxCell>
    <mxCell id="673K4u6FU-GTqoQ9WKUB-186" value="" style="shape=partialRectangle;collapsible=0;dropTarget=0;pointerEvents=0;fillColor=none;top=0;left=0;bottom=0;right=0;points=[[0,0.5],[1,0.5]];portConstraint=eastwest;" vertex="1" parent="673K4u6FU-GTqoQ9WKUB-1">
      <mxGeometry y="150" width="180" height="30" as="geometry" />
    </mxCell>
    <mxCell id="673K4u6FU-GTqoQ9WKUB-187" value="" style="shape=partialRectangle;connectable=0;fillColor=none;top=0;left=0;bottom=0;right=0;editable=1;overflow=hidden;" vertex="1" parent="673K4u6FU-GTqoQ9WKUB-186">
      <mxGeometry width="30" height="30" as="geometry" />
    </mxCell>
    <mxCell id="673K4u6FU-GTqoQ9WKUB-188" value="Порода" style="shape=partialRectangle;connectable=0;fillColor=none;top=0;left=0;bottom=0;right=0;align=left;spacingLeft=6;overflow=hidden;" vertex="1" parent="673K4u6FU-GTqoQ9WKUB-186">
      <mxGeometry x="30" width="150" height="30" as="geometry" />
    </mxCell>
    <mxCell id="673K4u6FU-GTqoQ9WKUB-212" value="" style="shape=partialRectangle;collapsible=0;dropTarget=0;pointerEvents=0;fillColor=none;top=0;left=0;bottom=0;right=0;points=[[0,0.5],[1,0.5]];portConstraint=eastwest;" vertex="1" parent="673K4u6FU-GTqoQ9WKUB-1">
      <mxGeometry y="180" width="180" height="30" as="geometry" />
    </mxCell>
    <mxCell id="673K4u6FU-GTqoQ9WKUB-213" value="" style="shape=partialRectangle;connectable=0;fillColor=none;top=0;left=0;bottom=0;right=0;editable=1;overflow=hidden;" vertex="1" parent="673K4u6FU-GTqoQ9WKUB-212">
      <mxGeometry width="30" height="30" as="geometry" />
    </mxCell>
    <mxCell id="673K4u6FU-GTqoQ9WKUB-214" value="Пол" style="shape=partialRectangle;connectable=0;fillColor=none;top=0;left=0;bottom=0;right=0;align=left;spacingLeft=6;overflow=hidden;" vertex="1" parent="673K4u6FU-GTqoQ9WKUB-212">
      <mxGeometry x="30" width="150" height="30" as="geometry" />
    </mxCell>
    <mxCell id="673K4u6FU-GTqoQ9WKUB-189" value="" style="shape=partialRectangle;collapsible=0;dropTarget=0;pointerEvents=0;fillColor=none;top=0;left=0;bottom=0;right=0;points=[[0,0.5],[1,0.5]];portConstraint=eastwest;" vertex="1" parent="673K4u6FU-GTqoQ9WKUB-1">
      <mxGeometry y="210" width="180" height="30" as="geometry" />
    </mxCell>
    <mxCell id="673K4u6FU-GTqoQ9WKUB-190" value="" style="shape=partialRectangle;connectable=0;fillColor=none;top=0;left=0;bottom=0;right=0;editable=1;overflow=hidden;" vertex="1" parent="673K4u6FU-GTqoQ9WKUB-189">
      <mxGeometry width="30" height="30" as="geometry" />
    </mxCell>
    <mxCell id="673K4u6FU-GTqoQ9WKUB-191" value="Кличка" style="shape=partialRectangle;connectable=0;fillColor=none;top=0;left=0;bottom=0;right=0;align=left;spacingLeft=6;overflow=hidden;" vertex="1" parent="673K4u6FU-GTqoQ9WKUB-189">
      <mxGeometry x="30" width="150" height="30" as="geometry" />
    </mxCell>
    <mxCell id="673K4u6FU-GTqoQ9WKUB-192" value="" style="shape=partialRectangle;collapsible=0;dropTarget=0;pointerEvents=0;fillColor=none;top=0;left=0;bottom=0;right=0;points=[[0,0.5],[1,0.5]];portConstraint=eastwest;" vertex="1" parent="673K4u6FU-GTqoQ9WKUB-1">
      <mxGeometry y="240" width="180" height="30" as="geometry" />
    </mxCell>
    <mxCell id="673K4u6FU-GTqoQ9WKUB-193" value="" style="shape=partialRectangle;connectable=0;fillColor=none;top=0;left=0;bottom=0;right=0;editable=1;overflow=hidden;" vertex="1" parent="673K4u6FU-GTqoQ9WKUB-192">
      <mxGeometry width="30" height="30" as="geometry" />
    </mxCell>
    <mxCell id="673K4u6FU-GTqoQ9WKUB-194" value="Возраст" style="shape=partialRectangle;connectable=0;fillColor=none;top=0;left=0;bottom=0;right=0;align=left;spacingLeft=6;overflow=hidden;" vertex="1" parent="673K4u6FU-GTqoQ9WKUB-192">
      <mxGeometry x="30" width="150" height="30" as="geometry" />
    </mxCell>
    <mxCell id="673K4u6FU-GTqoQ9WKUB-199" value="" style="shape=partialRectangle;collapsible=0;dropTarget=0;pointerEvents=0;fillColor=none;top=0;left=0;bottom=0;right=0;points=[[0,0.5],[1,0.5]];portConstraint=eastwest;" vertex="1" parent="673K4u6FU-GTqoQ9WKUB-1">
      <mxGeometry y="270" width="180" height="30" as="geometry" />
    </mxCell>
    <mxCell id="673K4u6FU-GTqoQ9WKUB-200" value="" style="shape=partialRectangle;connectable=0;fillColor=none;top=0;left=0;bottom=0;right=0;editable=1;overflow=hidden;" vertex="1" parent="673K4u6FU-GTqoQ9WKUB-199">
      <mxGeometry width="30" height="30" as="geometry" />
    </mxCell>
    <mxCell id="673K4u6FU-GTqoQ9WKUB-201" value="Вес" style="shape=partialRectangle;connectable=0;fillColor=none;top=0;left=0;bottom=0;right=0;align=left;spacingLeft=6;overflow=hidden;" vertex="1" parent="673K4u6FU-GTqoQ9WKUB-199">
      <mxGeometry x="30" width="150" height="30" as="geometry" />
    </mxCell>
    <mxCell id="673K4u6FU-GTqoQ9WKUB-202" value="" style="shape=partialRectangle;collapsible=0;dropTarget=0;pointerEvents=0;fillColor=none;top=0;left=0;bottom=0;right=0;points=[[0,0.5],[1,0.5]];portConstraint=eastwest;" vertex="1" parent="673K4u6FU-GTqoQ9WKUB-1">
      <mxGeometry y="300" width="180" height="30" as="geometry" />
    </mxCell>
    <mxCell id="673K4u6FU-GTqoQ9WKUB-203" value="" style="shape=partialRectangle;connectable=0;fillColor=none;top=0;left=0;bottom=0;right=0;editable=1;overflow=hidden;" vertex="1" parent="673K4u6FU-GTqoQ9WKUB-202">
      <mxGeometry width="30" height="30" as="geometry" />
    </mxCell>
    <mxCell id="673K4u6FU-GTqoQ9WKUB-204" value="Окрас" style="shape=partialRectangle;connectable=0;fillColor=none;top=0;left=0;bottom=0;right=0;align=left;spacingLeft=6;overflow=hidden;" vertex="1" parent="673K4u6FU-GTqoQ9WKUB-202">
      <mxGeometry x="30" width="150" height="30" as="geometry" />
    </mxCell>
    <mxCell id="673K4u6FU-GTqoQ9WKUB-205" value="" style="shape=partialRectangle;collapsible=0;dropTarget=0;pointerEvents=0;fillColor=none;top=0;left=0;bottom=0;right=0;points=[[0,0.5],[1,0.5]];portConstraint=eastwest;" vertex="1" parent="673K4u6FU-GTqoQ9WKUB-1">
      <mxGeometry y="330" width="180" height="30" as="geometry" />
    </mxCell>
    <mxCell id="673K4u6FU-GTqoQ9WKUB-206" value="" style="shape=partialRectangle;connectable=0;fillColor=none;top=0;left=0;bottom=0;right=0;editable=1;overflow=hidden;" vertex="1" parent="673K4u6FU-GTqoQ9WKUB-205">
      <mxGeometry width="30" height="30" as="geometry" />
    </mxCell>
    <mxCell id="673K4u6FU-GTqoQ9WKUB-207" value="Примечания" style="shape=partialRectangle;connectable=0;fillColor=none;top=0;left=0;bottom=0;right=0;align=left;spacingLeft=6;overflow=hidden;" vertex="1" parent="673K4u6FU-GTqoQ9WKUB-205">
      <mxGeometry x="30" width="150" height="30" as="geometry" />
    </mxCell>
    <mxCell id="673K4u6FU-GTqoQ9WKUB-8" value="" style="shape=partialRectangle;collapsible=0;dropTarget=0;pointerEvents=0;fillColor=none;top=0;left=0;bottom=0;right=0;points=[[0,0.5],[1,0.5]];portConstraint=eastwest;" vertex="1" parent="673K4u6FU-GTqoQ9WKUB-1">
      <mxGeometry y="360" width="180" height="30" as="geometry" />
    </mxCell>
    <mxCell id="673K4u6FU-GTqoQ9WKUB-9" value="" style="shape=partialRectangle;connectable=0;fillColor=none;top=0;left=0;bottom=0;right=0;editable=1;overflow=hidden;" vertex="1" parent="673K4u6FU-GTqoQ9WKUB-8">
      <mxGeometry width="30" height="30" as="geometry" />
    </mxCell>
    <mxCell id="673K4u6FU-GTqoQ9WKUB-10" value="Описание проблемы" style="shape=partialRectangle;connectable=0;fillColor=none;top=0;left=0;bottom=0;right=0;align=left;spacingLeft=6;overflow=hidden;" vertex="1" parent="673K4u6FU-GTqoQ9WKUB-8">
      <mxGeometry x="30" width="150" height="30" as="geometry" />
    </mxCell>
    <mxCell id="673K4u6FU-GTqoQ9WKUB-71" value="" style="shape=partialRectangle;collapsible=0;dropTarget=0;pointerEvents=0;fillColor=none;top=0;left=0;bottom=0;right=0;points=[[0,0.5],[1,0.5]];portConstraint=eastwest;" vertex="1" parent="673K4u6FU-GTqoQ9WKUB-1">
      <mxGeometry y="390" width="180" height="30" as="geometry" />
    </mxCell>
    <mxCell id="673K4u6FU-GTqoQ9WKUB-72" value="" style="shape=partialRectangle;connectable=0;fillColor=none;top=0;left=0;bottom=0;right=0;editable=1;overflow=hidden;" vertex="1" parent="673K4u6FU-GTqoQ9WKUB-71">
      <mxGeometry width="30" height="30" as="geometry" />
    </mxCell>
    <mxCell id="673K4u6FU-GTqoQ9WKUB-73" value="Статус" style="shape=partialRectangle;connectable=0;fillColor=none;top=0;left=0;bottom=0;right=0;align=left;spacingLeft=6;overflow=hidden;" vertex="1" parent="673K4u6FU-GTqoQ9WKUB-71">
      <mxGeometry x="30" width="150" height="30" as="geometry" />
    </mxCell>
    <mxCell id="673K4u6FU-GTqoQ9WKUB-54" value="Заключение" style="shape=table;startSize=30;container=1;collapsible=1;childLayout=tableLayout;fixedRows=1;rowLines=0;fontStyle=1;align=center;resizeLast=1;" vertex="1" parent="1">
      <mxGeometry x="300" y="150" width="180" height="250" as="geometry" />
    </mxCell>
    <mxCell id="673K4u6FU-GTqoQ9WKUB-55" value="" style="shape=partialRectangle;collapsible=0;dropTarget=0;pointerEvents=0;fillColor=none;top=0;left=0;bottom=1;right=0;points=[[0,0.5],[1,0.5]];portConstraint=eastwest;" vertex="1" parent="673K4u6FU-GTqoQ9WKUB-54">
      <mxGeometry y="30" width="180" height="30" as="geometry" />
    </mxCell>
    <mxCell id="673K4u6FU-GTqoQ9WKUB-56" value="PK" style="shape=partialRectangle;connectable=0;fillColor=none;top=0;left=0;bottom=0;right=0;fontStyle=1;overflow=hidden;" vertex="1" parent="673K4u6FU-GTqoQ9WKUB-55">
      <mxGeometry width="30" height="30" as="geometry" />
    </mxCell>
    <mxCell id="673K4u6FU-GTqoQ9WKUB-57" value="Номер заключения" style="shape=partialRectangle;connectable=0;fillColor=none;top=0;left=0;bottom=0;right=0;align=left;spacingLeft=6;fontStyle=5;overflow=hidden;" vertex="1" parent="673K4u6FU-GTqoQ9WKUB-55">
      <mxGeometry x="30" width="150" height="30" as="geometry" />
    </mxCell>
    <mxCell id="673K4u6FU-GTqoQ9WKUB-77" value="" style="shape=partialRectangle;collapsible=0;dropTarget=0;pointerEvents=0;fillColor=none;top=0;left=0;bottom=0;right=0;points=[[0,0.5],[1,0.5]];portConstraint=eastwest;" vertex="1" parent="673K4u6FU-GTqoQ9WKUB-54">
      <mxGeometry y="60" width="180" height="30" as="geometry" />
    </mxCell>
    <mxCell id="673K4u6FU-GTqoQ9WKUB-78" value="" style="shape=partialRectangle;connectable=0;fillColor=none;top=0;left=0;bottom=0;right=0;editable=1;overflow=hidden;" vertex="1" parent="673K4u6FU-GTqoQ9WKUB-77">
      <mxGeometry width="30" height="30" as="geometry" />
    </mxCell>
    <mxCell id="673K4u6FU-GTqoQ9WKUB-79" value="Дата" style="shape=partialRectangle;connectable=0;fillColor=none;top=0;left=0;bottom=0;right=0;align=left;spacingLeft=6;overflow=hidden;" vertex="1" parent="673K4u6FU-GTqoQ9WKUB-77">
      <mxGeometry x="30" width="150" height="30" as="geometry" />
    </mxCell>
    <mxCell id="673K4u6FU-GTqoQ9WKUB-174" value="" style="shape=partialRectangle;collapsible=0;dropTarget=0;pointerEvents=0;fillColor=none;top=0;left=0;bottom=0;right=0;points=[[0,0.5],[1,0.5]];portConstraint=eastwest;" vertex="1" parent="673K4u6FU-GTqoQ9WKUB-54">
      <mxGeometry y="90" width="180" height="40" as="geometry" />
    </mxCell>
    <mxCell id="673K4u6FU-GTqoQ9WKUB-175" value="FK" style="shape=partialRectangle;connectable=0;fillColor=none;top=0;left=0;bottom=0;right=0;editable=1;overflow=hidden;" vertex="1" parent="673K4u6FU-GTqoQ9WKUB-174">
      <mxGeometry width="30" height="40" as="geometry" />
    </mxCell>
    <mxCell id="673K4u6FU-GTqoQ9WKUB-176" value="Номер обращения" style="shape=partialRectangle;connectable=0;fillColor=none;top=0;left=0;bottom=0;right=0;align=left;spacingLeft=6;overflow=hidden;" vertex="1" parent="673K4u6FU-GTqoQ9WKUB-174">
      <mxGeometry x="30" width="150" height="40" as="geometry" />
    </mxCell>
    <mxCell id="673K4u6FU-GTqoQ9WKUB-58" value="" style="shape=partialRectangle;collapsible=0;dropTarget=0;pointerEvents=0;fillColor=none;top=0;left=0;bottom=0;right=0;points=[[0,0.5],[1,0.5]];portConstraint=eastwest;" vertex="1" parent="673K4u6FU-GTqoQ9WKUB-54">
      <mxGeometry y="130" width="180" height="30" as="geometry" />
    </mxCell>
    <mxCell id="673K4u6FU-GTqoQ9WKUB-59" value="" style="shape=partialRectangle;connectable=0;fillColor=none;top=0;left=0;bottom=0;right=0;editable=1;overflow=hidden;" vertex="1" parent="673K4u6FU-GTqoQ9WKUB-58">
      <mxGeometry width="30" height="30" as="geometry" />
    </mxCell>
    <mxCell id="673K4u6FU-GTqoQ9WKUB-60" value="Специальность врача" style="shape=partialRectangle;connectable=0;fillColor=none;top=0;left=0;bottom=0;right=0;align=left;spacingLeft=6;overflow=hidden;" vertex="1" parent="673K4u6FU-GTqoQ9WKUB-58">
      <mxGeometry x="30" width="150" height="30" as="geometry" />
    </mxCell>
    <mxCell id="673K4u6FU-GTqoQ9WKUB-61" value="" style="shape=partialRectangle;collapsible=0;dropTarget=0;pointerEvents=0;fillColor=none;top=0;left=0;bottom=0;right=0;points=[[0,0.5],[1,0.5]];portConstraint=eastwest;" vertex="1" parent="673K4u6FU-GTqoQ9WKUB-54">
      <mxGeometry y="160" width="180" height="30" as="geometry" />
    </mxCell>
    <mxCell id="673K4u6FU-GTqoQ9WKUB-62" value="" style="shape=partialRectangle;connectable=0;fillColor=none;top=0;left=0;bottom=0;right=0;editable=1;overflow=hidden;" vertex="1" parent="673K4u6FU-GTqoQ9WKUB-61">
      <mxGeometry width="30" height="30" as="geometry" />
    </mxCell>
    <mxCell id="673K4u6FU-GTqoQ9WKUB-63" value="Диагноз" style="shape=partialRectangle;connectable=0;fillColor=none;top=0;left=0;bottom=0;right=0;align=left;spacingLeft=6;overflow=hidden;" vertex="1" parent="673K4u6FU-GTqoQ9WKUB-61">
      <mxGeometry x="30" width="150" height="30" as="geometry" />
    </mxCell>
    <mxCell id="673K4u6FU-GTqoQ9WKUB-64" value="" style="shape=partialRectangle;collapsible=0;dropTarget=0;pointerEvents=0;fillColor=none;top=0;left=0;bottom=0;right=0;points=[[0,0.5],[1,0.5]];portConstraint=eastwest;" vertex="1" parent="673K4u6FU-GTqoQ9WKUB-54">
      <mxGeometry y="190" width="180" height="30" as="geometry" />
    </mxCell>
    <mxCell id="673K4u6FU-GTqoQ9WKUB-65" value="" style="shape=partialRectangle;connectable=0;fillColor=none;top=0;left=0;bottom=0;right=0;editable=1;overflow=hidden;" vertex="1" parent="673K4u6FU-GTqoQ9WKUB-64">
      <mxGeometry width="30" height="30" as="geometry" />
    </mxCell>
    <mxCell id="673K4u6FU-GTqoQ9WKUB-66" value="Метод лечения" style="shape=partialRectangle;connectable=0;fillColor=none;top=0;left=0;bottom=0;right=0;align=left;spacingLeft=6;overflow=hidden;" vertex="1" parent="673K4u6FU-GTqoQ9WKUB-64">
      <mxGeometry x="30" width="150" height="30" as="geometry" />
    </mxCell>
    <mxCell id="673K4u6FU-GTqoQ9WKUB-225" value="" style="shape=partialRectangle;collapsible=0;dropTarget=0;pointerEvents=0;fillColor=none;top=0;left=0;bottom=0;right=0;points=[[0,0.5],[1,0.5]];portConstraint=eastwest;" vertex="1" parent="673K4u6FU-GTqoQ9WKUB-54">
      <mxGeometry y="220" width="180" height="30" as="geometry" />
    </mxCell>
    <mxCell id="673K4u6FU-GTqoQ9WKUB-226" value="" style="shape=partialRectangle;connectable=0;fillColor=none;top=0;left=0;bottom=0;right=0;editable=1;overflow=hidden;" vertex="1" parent="673K4u6FU-GTqoQ9WKUB-225">
      <mxGeometry width="30" height="30" as="geometry" />
    </mxCell>
    <mxCell id="673K4u6FU-GTqoQ9WKUB-227" value="Рекомендации" style="shape=partialRectangle;connectable=0;fillColor=none;top=0;left=0;bottom=0;right=0;align=left;spacingLeft=6;overflow=hidden;" vertex="1" parent="673K4u6FU-GTqoQ9WKUB-225">
      <mxGeometry x="30" width="150" height="30" as="geometry" />
    </mxCell>
    <mxCell id="673K4u6FU-GTqoQ9WKUB-180" style="edgeStyle=orthogonalEdgeStyle;rounded=0;orthogonalLoop=1;jettySize=auto;html=1;exitX=0;exitY=0.5;exitDx=0;exitDy=0;entryX=1;entryY=0.5;entryDx=0;entryDy=0;fontSize=11;endArrow=ERmandOne;endFill=0;startArrow=ERmandOne;startFill=0;" edge="1" parent="1" source="673K4u6FU-GTqoQ9WKUB-174" target="673K4u6FU-GTqoQ9WKUB-2">
      <mxGeometry relative="1" as="geometry" />
    </mxCell>
  </root>
</mxGraphModel>
